<svg width="1440" height="1024" viewBox="0 0 1440 1024" fill="none" xmlns="http://www.w3.org/2000/svg">
<rect width="1440" height="1024" fill="#040404"/>
<rect x="200" y="339" width="15" height="4" fill="#D9D9D9"/>
<rect x="257" y="704" width="15" height="4" fill="#D9D9D9"/>
<rect x="620" y="878" width="15" height="4" fill="#D9D9D9"/>
<rect x="1008" y="898" width="15" height="4" fill="#D9D9D9"/>
<rect x="1016" y="286" width="15" height="4" fill="#D9D9D9"/>
<rect x="753" y="704" width="15" height="4" fill="#D9D9D9"/>
<rect x="398" y="213" width="15" height="4" fill="#899135"/>
<rect x="1226" y="861" width="15" height="4" fill="#899135"/>
<rect x="635" y="290" width="15" height="4" fill="#D9D9D9"/>
<rect x="200" y="493" width="15" height="4" fill="#D9D9D9"/>
<rect x="1084" y="667" width="15" height="4" fill="#D9D9D9"/>
<rect x="1199" y="495" width="15" height="4" fill="#D9D9D9"/>
<rect x="1250" y="335" width="15" height="4" fill="#D9D9D9"/>
<rect x="830" y="933" width="15" height="4" fill="#D9D9D9"/>
<rect x="321" y="919" width="15" height="4" fill="#D9D9D9"/>
</svg>
