<?xml version="1.0" standalone="no"?>
<svg xmlns="http://www.w3.org/2000/svg" width="500" height="500"><defs><clipPath id="clip-path-dot-color"><rect x="25" y="115" width="10" height="10" transform="rotate(0,30,120)"/><rect x="25" y="145" width="10" height="10" transform="rotate(0,30,150)"/><rect x="25" y="155" width="10" height="10" transform="rotate(0,30,160)"/><rect x="25" y="165" width="10" height="10" transform="rotate(0,30,170)"/><rect x="25" y="265" width="10" height="10" transform="rotate(0,30,270)"/><rect x="25" y="275" width="10" height="10" transform="rotate(0,30,280)"/><rect x="25" y="285" width="10" height="10" transform="rotate(0,30,290)"/><rect x="25" y="295" width="10" height="10" transform="rotate(0,30,300)"/><rect x="25" y="305" width="10" height="10" transform="rotate(0,30,310)"/><rect x="25" y="315" width="10" height="10" transform="rotate(0,30,320)"/><rect x="25" y="325" width="10" height="10" transform="rotate(0,30,330)"/><rect x="25" y="335" width="10" height="10" transform="rotate(0,30,340)"/><rect x="25" y="345" width="10" height="10" transform="rotate(0,30,350)"/><rect x="25" y="385" width="10" height="10" transform="rotate(0,30,390)"/><rect x="35" y="125" width="10" height="10" transform="rotate(0,40,130)"/><rect x="35" y="175" width="10" height="10" transform="rotate(0,40,180)"/><rect x="35" y="185" width="10" height="10" transform="rotate(0,40,190)"/><rect x="35" y="215" width="10" height="10" transform="rotate(0,40,220)"/><rect x="35" y="235" width="10" height="10" transform="rotate(0,40,240)"/><rect x="35" y="245" width="10" height="10" transform="rotate(0,40,250)"/><rect x="35" y="255" width="10" height="10" transform="rotate(0,40,260)"/><rect x="35" y="295" width="10" height="10" transform="rotate(0,40,300)"/><rect x="35" y="315" width="10" height="10" transform="rotate(0,40,320)"/><rect x="35" y="345" width="10" height="10" transform="rotate(0,40,350)"/><rect x="35" y="355" width="10" height="10" transform="rotate(0,40,360)"/><rect x="35" y="375" width="10" height="10" transform="rotate(0,40,380)"/><rect x="45" y="105" width="10" height="10" transform="rotate(0,50,110)"/><rect x="45" y="135" width="10" height="10" transform="rotate(0,50,140)"/><rect x="45" y="165" width="10" height="10" transform="rotate(0,50,170)"/><rect x="45" y="185" width="10" height="10" transform="rotate(0,50,190)"/><rect x="45" y="195" width="10" height="10" transform="rotate(0,50,200)"/><rect x="45" y="235" width="10" height="10" transform="rotate(0,50,240)"/><rect x="45" y="265" width="10" height="10" transform="rotate(0,50,270)"/><rect x="45" y="275" width="10" height="10" transform="rotate(0,50,280)"/><rect x="45" y="285" width="10" height="10" transform="rotate(0,50,290)"/><rect x="45" y="295" width="10" height="10" transform="rotate(0,50,300)"/><rect x="45" y="305" width="10" height="10" transform="rotate(0,50,310)"/><rect x="45" y="325" width="10" height="10" transform="rotate(0,50,330)"/><rect x="45" y="345" width="10" height="10" transform="rotate(0,50,350)"/><rect x="45" y="355" width="10" height="10" transform="rotate(0,50,360)"/><rect x="45" y="375" width="10" height="10" transform="rotate(0,50,380)"/><rect x="55" y="145" width="10" height="10" transform="rotate(0,60,150)"/><rect x="55" y="155" width="10" height="10" transform="rotate(0,60,160)"/><rect x="55" y="165" width="10" height="10" transform="rotate(0,60,170)"/><rect x="55" y="205" width="10" height="10" transform="rotate(0,60,210)"/><rect x="55" y="235" width="10" height="10" transform="rotate(0,60,240)"/><rect x="55" y="255" width="10" height="10" transform="rotate(0,60,260)"/><rect x="55" y="285" width="10" height="10" transform="rotate(0,60,290)"/><rect x="55" y="305" width="10" height="10" transform="rotate(0,60,310)"/><rect x="55" y="325" width="10" height="10" transform="rotate(0,60,330)"/><rect x="55" y="335" width="10" height="10" transform="rotate(0,60,340)"/><rect x="55" y="375" width="10" height="10" transform="rotate(0,60,380)"/><rect x="55" y="385" width="10" height="10" transform="rotate(0,60,390)"/><rect x="65" y="105" width="10" height="10" transform="rotate(0,70,110)"/><rect x="65" y="135" width="10" height="10" transform="rotate(0,70,140)"/><rect x="65" y="155" width="10" height="10" transform="rotate(0,70,160)"/><rect x="65" y="185" width="10" height="10" transform="rotate(0,70,190)"/><rect x="65" y="195" width="10" height="10" transform="rotate(0,70,200)"/><rect x="65" y="205" width="10" height="10" transform="rotate(0,70,210)"/><rect x="65" y="215" width="10" height="10" transform="rotate(0,70,220)"/><rect x="65" y="225" width="10" height="10" transform="rotate(0,70,230)"/><rect x="65" y="235" width="10" height="10" transform="rotate(0,70,240)"/><rect x="65" y="245" width="10" height="10" transform="rotate(0,70,250)"/><rect x="65" y="255" width="10" height="10" transform="rotate(0,70,260)"/><rect x="65" y="265" width="10" height="10" transform="rotate(0,70,270)"/><rect x="65" y="315" width="10" height="10" transform="rotate(0,70,320)"/><rect x="65" y="325" width="10" height="10" transform="rotate(0,70,330)"/><rect x="65" y="335" width="10" height="10" transform="rotate(0,70,340)"/><rect x="65" y="355" width="10" height="10" transform="rotate(0,70,360)"/><rect x="65" y="365" width="10" height="10" transform="rotate(0,70,370)"/><rect x="65" y="375" width="10" height="10" transform="rotate(0,70,380)"/><rect x="65" y="385" width="10" height="10" transform="rotate(0,70,390)"/><rect x="75" y="105" width="10" height="10" transform="rotate(0,80,110)"/><rect x="75" y="115" width="10" height="10" transform="rotate(0,80,120)"/><rect x="75" y="135" width="10" height="10" transform="rotate(0,80,140)"/><rect x="75" y="175" width="10" height="10" transform="rotate(0,80,180)"/><rect x="75" y="225" width="10" height="10" transform="rotate(0,80,230)"/><rect x="75" y="265" width="10" height="10" transform="rotate(0,80,270)"/><rect x="75" y="275" width="10" height="10" transform="rotate(0,80,280)"/><rect x="75" y="285" width="10" height="10" transform="rotate(0,80,290)"/><rect x="85" y="105" width="10" height="10" transform="rotate(0,90,110)"/><rect x="85" y="125" width="10" height="10" transform="rotate(0,90,130)"/><rect x="85" y="145" width="10" height="10" transform="rotate(0,90,150)"/><rect x="85" y="165" width="10" height="10" transform="rotate(0,90,170)"/><rect x="85" y="185" width="10" height="10" transform="rotate(0,90,190)"/><rect x="85" y="205" width="10" height="10" transform="rotate(0,90,210)"/><rect x="85" y="225" width="10" height="10" transform="rotate(0,90,230)"/><rect x="85" y="245" width="10" height="10" transform="rotate(0,90,250)"/><rect x="85" y="265" width="10" height="10" transform="rotate(0,90,270)"/><rect x="85" y="285" width="10" height="10" transform="rotate(0,90,290)"/><rect x="85" y="305" width="10" height="10" transform="rotate(0,90,310)"/><rect x="85" y="325" width="10" height="10" transform="rotate(0,90,330)"/><rect x="85" y="345" width="10" height="10" transform="rotate(0,90,350)"/><rect x="85" y="365" width="10" height="10" transform="rotate(0,90,370)"/><rect x="85" y="385" width="10" height="10" transform="rotate(0,90,390)"/><rect x="95" y="115" width="10" height="10" transform="rotate(0,100,120)"/><rect x="95" y="135" width="10" height="10" transform="rotate(0,100,140)"/><rect x="95" y="145" width="10" height="10" transform="rotate(0,100,150)"/><rect x="95" y="175" width="10" height="10" transform="rotate(0,100,180)"/><rect x="95" y="185" width="10" height="10" transform="rotate(0,100,190)"/><rect x="95" y="195" width="10" height="10" transform="rotate(0,100,200)"/><rect x="95" y="215" width="10" height="10" transform="rotate(0,100,220)"/><rect x="95" y="225" width="10" height="10" transform="rotate(0,100,230)"/><rect x="95" y="265" width="10" height="10" transform="rotate(0,100,270)"/><rect x="95" y="275" width="10" height="10" transform="rotate(0,100,280)"/><rect x="95" y="285" width="10" height="10" transform="rotate(0,100,290)"/><rect x="95" y="295" width="10" height="10" transform="rotate(0,100,300)"/><rect x="95" y="305" width="10" height="10" transform="rotate(0,100,310)"/><rect x="95" y="315" width="10" height="10" transform="rotate(0,100,320)"/><rect x="95" y="325" width="10" height="10" transform="rotate(0,100,330)"/><rect x="95" y="335" width="10" height="10" transform="rotate(0,100,340)"/><rect x="95" y="345" width="10" height="10" transform="rotate(0,100,350)"/><rect x="95" y="365" width="10" height="10" transform="rotate(0,100,370)"/><rect x="95" y="375" width="10" height="10" transform="rotate(0,100,380)"/><rect x="95" y="385" width="10" height="10" transform="rotate(0,100,390)"/><rect x="105" y="35" width="10" height="10" transform="rotate(0,110,40)"/><rect x="105" y="65" width="10" height="10" transform="rotate(0,110,70)"/><rect x="105" y="85" width="10" height="10" transform="rotate(0,110,90)"/><rect x="105" y="105" width="10" height="10" transform="rotate(0,110,110)"/><rect x="105" y="135" width="10" height="10" transform="rotate(0,110,140)"/><rect x="105" y="145" width="10" height="10" transform="rotate(0,110,150)"/><rect x="105" y="155" width="10" height="10" transform="rotate(0,110,160)"/><rect x="105" y="175" width="10" height="10" transform="rotate(0,110,180)"/><rect x="105" y="225" width="10" height="10" transform="rotate(0,110,230)"/><rect x="105" y="235" width="10" height="10" transform="rotate(0,110,240)"/><rect x="105" y="245" width="10" height="10" transform="rotate(0,110,250)"/><rect x="105" y="255" width="10" height="10" transform="rotate(0,110,260)"/><rect x="105" y="265" width="10" height="10" transform="rotate(0,110,270)"/><rect x="105" y="275" width="10" height="10" transform="rotate(0,110,280)"/><rect x="105" y="285" width="10" height="10" transform="rotate(0,110,290)"/><rect x="105" y="295" width="10" height="10" transform="rotate(0,110,300)"/><rect x="105" y="315" width="10" height="10" transform="rotate(0,110,320)"/><rect x="105" y="325" width="10" height="10" transform="rotate(0,110,330)"/><rect x="105" y="345" width="10" height="10" transform="rotate(0,110,350)"/><rect x="105" y="355" width="10" height="10" transform="rotate(0,110,360)"/><rect x="105" y="365" width="10" height="10" transform="rotate(0,110,370)"/><rect x="105" y="385" width="10" height="10" transform="rotate(0,110,390)"/><rect x="105" y="395" width="10" height="10" transform="rotate(0,110,400)"/><rect x="105" y="415" width="10" height="10" transform="rotate(0,110,420)"/><rect x="105" y="425" width="10" height="10" transform="rotate(0,110,430)"/><rect x="105" y="445" width="10" height="10" transform="rotate(0,110,450)"/><rect x="115" y="25" width="10" height="10" transform="rotate(0,120,30)"/><rect x="115" y="45" width="10" height="10" transform="rotate(0,120,50)"/><rect x="115" y="55" width="10" height="10" transform="rotate(0,120,60)"/><rect x="115" y="115" width="10" height="10" transform="rotate(0,120,120)"/><rect x="115" y="125" width="10" height="10" transform="rotate(0,120,130)"/><rect x="115" y="155" width="10" height="10" transform="rotate(0,120,160)"/><rect x="115" y="165" width="10" height="10" transform="rotate(0,120,170)"/><rect x="115" y="195" width="10" height="10" transform="rotate(0,120,200)"/><rect x="115" y="205" width="10" height="10" transform="rotate(0,120,210)"/><rect x="115" y="235" width="10" height="10" transform="rotate(0,120,240)"/><rect x="115" y="245" width="10" height="10" transform="rotate(0,120,250)"/><rect x="115" y="265" width="10" height="10" transform="rotate(0,120,270)"/><rect x="115" y="285" width="10" height="10" transform="rotate(0,120,290)"/><rect x="115" y="305" width="10" height="10" transform="rotate(0,120,310)"/><rect x="115" y="315" width="10" height="10" transform="rotate(0,120,320)"/><rect x="115" y="325" width="10" height="10" transform="rotate(0,120,330)"/><rect x="115" y="375" width="10" height="10" transform="rotate(0,120,380)"/><rect x="115" y="385" width="10" height="10" transform="rotate(0,120,390)"/><rect x="115" y="405" width="10" height="10" transform="rotate(0,120,410)"/><rect x="115" y="435" width="10" height="10" transform="rotate(0,120,440)"/><rect x="115" y="455" width="10" height="10" transform="rotate(0,120,460)"/><rect x="125" y="35" width="10" height="10" transform="rotate(0,130,40)"/><rect x="125" y="45" width="10" height="10" transform="rotate(0,130,50)"/><rect x="125" y="55" width="10" height="10" transform="rotate(0,130,60)"/><rect x="125" y="65" width="10" height="10" transform="rotate(0,130,70)"/><rect x="125" y="85" width="10" height="10" transform="rotate(0,130,90)"/><rect x="125" y="95" width="10" height="10" transform="rotate(0,130,100)"/><rect x="125" y="105" width="10" height="10" transform="rotate(0,130,110)"/><rect x="125" y="145" width="10" height="10" transform="rotate(0,130,150)"/><rect x="125" y="165" width="10" height="10" transform="rotate(0,130,170)"/><rect x="125" y="185" width="10" height="10" transform="rotate(0,130,190)"/><rect x="125" y="195" width="10" height="10" transform="rotate(0,130,200)"/><rect x="125" y="215" width="10" height="10" transform="rotate(0,130,220)"/><rect x="125" y="225" width="10" height="10" transform="rotate(0,130,230)"/><rect x="125" y="245" width="10" height="10" transform="rotate(0,130,250)"/><rect x="125" y="265" width="10" height="10" transform="rotate(0,130,270)"/><rect x="125" y="275" width="10" height="10" transform="rotate(0,130,280)"/><rect x="125" y="295" width="10" height="10" transform="rotate(0,130,300)"/><rect x="125" y="305" width="10" height="10" transform="rotate(0,130,310)"/><rect x="125" y="315" width="10" height="10" transform="rotate(0,130,320)"/><rect x="125" y="335" width="10" height="10" transform="rotate(0,130,340)"/><rect x="125" y="345" width="10" height="10" transform="rotate(0,130,350)"/><rect x="125" y="395" width="10" height="10" transform="rotate(0,130,400)"/><rect x="125" y="405" width="10" height="10" transform="rotate(0,130,410)"/><rect x="125" y="425" width="10" height="10" transform="rotate(0,130,430)"/><rect x="125" y="435" width="10" height="10" transform="rotate(0,130,440)"/><rect x="125" y="445" width="10" height="10" transform="rotate(0,130,450)"/><rect x="125" y="455" width="10" height="10" transform="rotate(0,130,460)"/><rect x="135" y="25" width="10" height="10" transform="rotate(0,140,30)"/><rect x="135" y="65" width="10" height="10" transform="rotate(0,140,70)"/><rect x="135" y="95" width="10" height="10" transform="rotate(0,140,100)"/><rect x="135" y="115" width="10" height="10" transform="rotate(0,140,120)"/><rect x="135" y="135" width="10" height="10" transform="rotate(0,140,140)"/><rect x="135" y="145" width="10" height="10" transform="rotate(0,140,150)"/><rect x="135" y="155" width="10" height="10" transform="rotate(0,140,160)"/><rect x="135" y="165" width="10" height="10" transform="rotate(0,140,170)"/><rect x="135" y="185" width="10" height="10" transform="rotate(0,140,190)"/><rect x="135" y="205" width="10" height="10" transform="rotate(0,140,210)"/><rect x="135" y="215" width="10" height="10" transform="rotate(0,140,220)"/><rect x="135" y="235" width="10" height="10" transform="rotate(0,140,240)"/><rect x="135" y="245" width="10" height="10" transform="rotate(0,140,250)"/><rect x="135" y="255" width="10" height="10" transform="rotate(0,140,260)"/><rect x="135" y="265" width="10" height="10" transform="rotate(0,140,270)"/><rect x="135" y="275" width="10" height="10" transform="rotate(0,140,280)"/><rect x="135" y="285" width="10" height="10" transform="rotate(0,140,290)"/><rect x="135" y="295" width="10" height="10" transform="rotate(0,140,300)"/><rect x="135" y="315" width="10" height="10" transform="rotate(0,140,320)"/><rect x="135" y="335" width="10" height="10" transform="rotate(0,140,340)"/><rect x="135" y="345" width="10" height="10" transform="rotate(0,140,350)"/><rect x="135" y="355" width="10" height="10" transform="rotate(0,140,360)"/><rect x="135" y="365" width="10" height="10" transform="rotate(0,140,370)"/><rect x="135" y="375" width="10" height="10" transform="rotate(0,140,380)"/><rect x="135" y="395" width="10" height="10" transform="rotate(0,140,400)"/><rect x="135" y="405" width="10" height="10" transform="rotate(0,140,410)"/><rect x="145" y="25" width="10" height="10" transform="rotate(0,150,30)"/><rect x="145" y="85" width="10" height="10" transform="rotate(0,150,90)"/><rect x="145" y="115" width="10" height="10" transform="rotate(0,150,120)"/><rect x="145" y="125" width="10" height="10" transform="rotate(0,150,130)"/><rect x="145" y="135" width="10" height="10" transform="rotate(0,150,140)"/><rect x="145" y="145" width="10" height="10" transform="rotate(0,150,150)"/><rect x="145" y="175" width="10" height="10" transform="rotate(0,150,180)"/><rect x="145" y="185" width="10" height="10" transform="rotate(0,150,190)"/><rect x="145" y="195" width="10" height="10" transform="rotate(0,150,200)"/><rect x="145" y="205" width="10" height="10" transform="rotate(0,150,210)"/><rect x="145" y="235" width="10" height="10" transform="rotate(0,150,240)"/><rect x="145" y="295" width="10" height="10" transform="rotate(0,150,300)"/><rect x="145" y="315" width="10" height="10" transform="rotate(0,150,320)"/><rect x="145" y="325" width="10" height="10" transform="rotate(0,150,330)"/><rect x="145" y="335" width="10" height="10" transform="rotate(0,150,340)"/><rect x="145" y="345" width="10" height="10" transform="rotate(0,150,350)"/><rect x="145" y="355" width="10" height="10" transform="rotate(0,150,360)"/><rect x="145" y="415" width="10" height="10" transform="rotate(0,150,420)"/><rect x="145" y="445" width="10" height="10" transform="rotate(0,150,450)"/><rect x="155" y="45" width="10" height="10" transform="rotate(0,160,50)"/><rect x="155" y="55" width="10" height="10" transform="rotate(0,160,60)"/><rect x="155" y="75" width="10" height="10" transform="rotate(0,160,80)"/><rect x="155" y="105" width="10" height="10" transform="rotate(0,160,110)"/><rect x="155" y="115" width="10" height="10" transform="rotate(0,160,120)"/><rect x="155" y="135" width="10" height="10" transform="rotate(0,160,140)"/><rect x="155" y="155" width="10" height="10" transform="rotate(0,160,160)"/><rect x="155" y="165" width="10" height="10" transform="rotate(0,160,170)"/><rect x="155" y="185" width="10" height="10" transform="rotate(0,160,190)"/><rect x="155" y="195" width="10" height="10" transform="rotate(0,160,200)"/><rect x="155" y="225" width="10" height="10" transform="rotate(0,160,230)"/><rect x="155" y="235" width="10" height="10" transform="rotate(0,160,240)"/><rect x="155" y="255" width="10" height="10" transform="rotate(0,160,260)"/><rect x="155" y="285" width="10" height="10" transform="rotate(0,160,290)"/><rect x="155" y="305" width="10" height="10" transform="rotate(0,160,310)"/><rect x="155" y="315" width="10" height="10" transform="rotate(0,160,320)"/><rect x="155" y="325" width="10" height="10" transform="rotate(0,160,330)"/><rect x="155" y="355" width="10" height="10" transform="rotate(0,160,360)"/><rect x="155" y="375" width="10" height="10" transform="rotate(0,160,380)"/><rect x="155" y="385" width="10" height="10" transform="rotate(0,160,390)"/><rect x="155" y="405" width="10" height="10" transform="rotate(0,160,410)"/><rect x="155" y="415" width="10" height="10" transform="rotate(0,160,420)"/><rect x="155" y="435" width="10" height="10" transform="rotate(0,160,440)"/><rect x="155" y="455" width="10" height="10" transform="rotate(0,160,460)"/><rect x="165" y="35" width="10" height="10" transform="rotate(0,170,40)"/><rect x="165" y="55" width="10" height="10" transform="rotate(0,170,60)"/><rect x="165" y="65" width="10" height="10" transform="rotate(0,170,70)"/><rect x="165" y="75" width="10" height="10" transform="rotate(0,170,80)"/><rect x="165" y="85" width="10" height="10" transform="rotate(0,170,90)"/><rect x="165" y="155" width="10" height="10" transform="rotate(0,170,160)"/><rect x="165" y="175" width="10" height="10" transform="rotate(0,170,180)"/><rect x="165" y="195" width="10" height="10" transform="rotate(0,170,200)"/><rect x="165" y="205" width="10" height="10" transform="rotate(0,170,210)"/><rect x="165" y="245" width="10" height="10" transform="rotate(0,170,250)"/><rect x="165" y="305" width="10" height="10" transform="rotate(0,170,310)"/><rect x="165" y="335" width="10" height="10" transform="rotate(0,170,340)"/><rect x="165" y="375" width="10" height="10" transform="rotate(0,170,380)"/><rect x="165" y="405" width="10" height="10" transform="rotate(0,170,410)"/><rect x="165" y="445" width="10" height="10" transform="rotate(0,170,450)"/><rect x="165" y="455" width="10" height="10" transform="rotate(0,170,460)"/><rect x="175" y="55" width="10" height="10" transform="rotate(0,180,60)"/><rect x="175" y="65" width="10" height="10" transform="rotate(0,180,70)"/><rect x="175" y="95" width="10" height="10" transform="rotate(0,180,100)"/><rect x="175" y="105" width="10" height="10" transform="rotate(0,180,110)"/><rect x="175" y="125" width="10" height="10" transform="rotate(0,180,130)"/><rect x="175" y="155" width="10" height="10" transform="rotate(0,180,160)"/><rect x="175" y="195" width="10" height="10" transform="rotate(0,180,200)"/><rect x="175" y="215" width="10" height="10" transform="rotate(0,180,220)"/><rect x="175" y="225" width="10" height="10" transform="rotate(0,180,230)"/><rect x="175" y="245" width="10" height="10" transform="rotate(0,180,250)"/><rect x="175" y="265" width="10" height="10" transform="rotate(0,180,270)"/><rect x="175" y="275" width="10" height="10" transform="rotate(0,180,280)"/><rect x="175" y="285" width="10" height="10" transform="rotate(0,180,290)"/><rect x="175" y="295" width="10" height="10" transform="rotate(0,180,300)"/><rect x="175" y="335" width="10" height="10" transform="rotate(0,180,340)"/><rect x="175" y="345" width="10" height="10" transform="rotate(0,180,350)"/><rect x="175" y="355" width="10" height="10" transform="rotate(0,180,360)"/><rect x="175" y="385" width="10" height="10" transform="rotate(0,180,390)"/><rect x="175" y="395" width="10" height="10" transform="rotate(0,180,400)"/><rect x="175" y="415" width="10" height="10" transform="rotate(0,180,420)"/><rect x="175" y="425" width="10" height="10" transform="rotate(0,180,430)"/><rect x="175" y="465" width="10" height="10" transform="rotate(0,180,470)"/><rect x="185" y="25" width="10" height="10" transform="rotate(0,190,30)"/><rect x="185" y="35" width="10" height="10" transform="rotate(0,190,40)"/><rect x="185" y="45" width="10" height="10" transform="rotate(0,190,50)"/><rect x="185" y="75" width="10" height="10" transform="rotate(0,190,80)"/><rect x="185" y="85" width="10" height="10" transform="rotate(0,190,90)"/><rect x="185" y="95" width="10" height="10" transform="rotate(0,190,100)"/><rect x="185" y="105" width="10" height="10" transform="rotate(0,190,110)"/><rect x="185" y="135" width="10" height="10" transform="rotate(0,190,140)"/><rect x="185" y="145" width="10" height="10" transform="rotate(0,190,150)"/><rect x="185" y="155" width="10" height="10" transform="rotate(0,190,160)"/><rect x="185" y="165" width="10" height="10" transform="rotate(0,190,170)"/><rect x="185" y="175" width="10" height="10" transform="rotate(0,190,180)"/><rect x="185" y="195" width="10" height="10" transform="rotate(0,190,200)"/><rect x="185" y="215" width="10" height="10" transform="rotate(0,190,220)"/><rect x="185" y="225" width="10" height="10" transform="rotate(0,190,230)"/><rect x="185" y="235" width="10" height="10" transform="rotate(0,190,240)"/><rect x="185" y="245" width="10" height="10" transform="rotate(0,190,250)"/><rect x="185" y="295" width="10" height="10" transform="rotate(0,190,300)"/><rect x="185" y="345" width="10" height="10" transform="rotate(0,190,350)"/><rect x="185" y="365" width="10" height="10" transform="rotate(0,190,370)"/><rect x="185" y="375" width="10" height="10" transform="rotate(0,190,380)"/><rect x="185" y="395" width="10" height="10" transform="rotate(0,190,400)"/><rect x="185" y="405" width="10" height="10" transform="rotate(0,190,410)"/><rect x="185" y="415" width="10" height="10" transform="rotate(0,190,420)"/><rect x="185" y="435" width="10" height="10" transform="rotate(0,190,440)"/><rect x="195" y="35" width="10" height="10" transform="rotate(0,200,40)"/><rect x="195" y="45" width="10" height="10" transform="rotate(0,200,50)"/><rect x="195" y="95" width="10" height="10" transform="rotate(0,200,100)"/><rect x="195" y="115" width="10" height="10" transform="rotate(0,200,120)"/><rect x="195" y="135" width="10" height="10" transform="rotate(0,200,140)"/><rect x="195" y="155" width="10" height="10" transform="rotate(0,200,160)"/><rect x="195" y="165" width="10" height="10" transform="rotate(0,200,170)"/><rect x="195" y="175" width="10" height="10" transform="rotate(0,200,180)"/><rect x="195" y="205" width="10" height="10" transform="rotate(0,200,210)"/><rect x="195" y="235" width="10" height="10" transform="rotate(0,200,240)"/><rect x="195" y="255" width="10" height="10" transform="rotate(0,200,260)"/><rect x="195" y="265" width="10" height="10" transform="rotate(0,200,270)"/><rect x="195" y="285" width="10" height="10" transform="rotate(0,200,290)"/><rect x="195" y="305" width="10" height="10" transform="rotate(0,200,310)"/><rect x="195" y="315" width="10" height="10" transform="rotate(0,200,320)"/><rect x="195" y="325" width="10" height="10" transform="rotate(0,200,330)"/><rect x="195" y="335" width="10" height="10" transform="rotate(0,200,340)"/><rect x="195" y="385" width="10" height="10" transform="rotate(0,200,390)"/><rect x="195" y="395" width="10" height="10" transform="rotate(0,200,400)"/><rect x="195" y="405" width="10" height="10" transform="rotate(0,200,410)"/><rect x="195" y="415" width="10" height="10" transform="rotate(0,200,420)"/><rect x="195" y="425" width="10" height="10" transform="rotate(0,200,430)"/><rect x="195" y="445" width="10" height="10" transform="rotate(0,200,450)"/><rect x="195" y="455" width="10" height="10" transform="rotate(0,200,460)"/><rect x="205" y="35" width="10" height="10" transform="rotate(0,210,40)"/><rect x="205" y="65" width="10" height="10" transform="rotate(0,210,70)"/><rect x="205" y="75" width="10" height="10" transform="rotate(0,210,80)"/><rect x="205" y="85" width="10" height="10" transform="rotate(0,210,90)"/><rect x="205" y="105" width="10" height="10" transform="rotate(0,210,110)"/><rect x="205" y="135" width="10" height="10" transform="rotate(0,210,140)"/><rect x="205" y="155" width="10" height="10" transform="rotate(0,210,160)"/><rect x="205" y="185" width="10" height="10" transform="rotate(0,210,190)"/><rect x="205" y="205" width="10" height="10" transform="rotate(0,210,210)"/><rect x="205" y="215" width="10" height="10" transform="rotate(0,210,220)"/><rect x="205" y="225" width="10" height="10" transform="rotate(0,210,230)"/><rect x="205" y="235" width="10" height="10" transform="rotate(0,210,240)"/><rect x="205" y="255" width="10" height="10" transform="rotate(0,210,260)"/><rect x="205" y="265" width="10" height="10" transform="rotate(0,210,270)"/><rect x="205" y="275" width="10" height="10" transform="rotate(0,210,280)"/><rect x="205" y="285" width="10" height="10" transform="rotate(0,210,290)"/><rect x="205" y="305" width="10" height="10" transform="rotate(0,210,310)"/><rect x="205" y="315" width="10" height="10" transform="rotate(0,210,320)"/><rect x="205" y="325" width="10" height="10" transform="rotate(0,210,330)"/><rect x="205" y="335" width="10" height="10" transform="rotate(0,210,340)"/><rect x="205" y="355" width="10" height="10" transform="rotate(0,210,360)"/><rect x="205" y="385" width="10" height="10" transform="rotate(0,210,390)"/><rect x="205" y="405" width="10" height="10" transform="rotate(0,210,410)"/><rect x="205" y="415" width="10" height="10" transform="rotate(0,210,420)"/><rect x="205" y="445" width="10" height="10" transform="rotate(0,210,450)"/><rect x="205" y="455" width="10" height="10" transform="rotate(0,210,460)"/><rect x="215" y="45" width="10" height="10" transform="rotate(0,220,50)"/><rect x="215" y="75" width="10" height="10" transform="rotate(0,220,80)"/><rect x="215" y="115" width="10" height="10" transform="rotate(0,220,120)"/><rect x="215" y="125" width="10" height="10" transform="rotate(0,220,130)"/><rect x="215" y="135" width="10" height="10" transform="rotate(0,220,140)"/><rect x="215" y="145" width="10" height="10" transform="rotate(0,220,150)"/><rect x="215" y="155" width="10" height="10" transform="rotate(0,220,160)"/><rect x="215" y="195" width="10" height="10" transform="rotate(0,220,200)"/><rect x="215" y="205" width="10" height="10" transform="rotate(0,220,210)"/><rect x="215" y="225" width="10" height="10" transform="rotate(0,220,230)"/><rect x="215" y="245" width="10" height="10" transform="rotate(0,220,250)"/><rect x="215" y="255" width="10" height="10" transform="rotate(0,220,260)"/><rect x="215" y="265" width="10" height="10" transform="rotate(0,220,270)"/><rect x="215" y="305" width="10" height="10" transform="rotate(0,220,310)"/><rect x="215" y="345" width="10" height="10" transform="rotate(0,220,350)"/><rect x="215" y="365" width="10" height="10" transform="rotate(0,220,370)"/><rect x="215" y="375" width="10" height="10" transform="rotate(0,220,380)"/><rect x="215" y="405" width="10" height="10" transform="rotate(0,220,410)"/><rect x="215" y="415" width="10" height="10" transform="rotate(0,220,420)"/><rect x="215" y="465" width="10" height="10" transform="rotate(0,220,470)"/><rect x="225" y="35" width="10" height="10" transform="rotate(0,230,40)"/><rect x="225" y="55" width="10" height="10" transform="rotate(0,230,60)"/><rect x="225" y="65" width="10" height="10" transform="rotate(0,230,70)"/><rect x="225" y="75" width="10" height="10" transform="rotate(0,230,80)"/><rect x="225" y="85" width="10" height="10" transform="rotate(0,230,90)"/><rect x="225" y="95" width="10" height="10" transform="rotate(0,230,100)"/><rect x="225" y="105" width="10" height="10" transform="rotate(0,230,110)"/><rect x="225" y="115" width="10" height="10" transform="rotate(0,230,120)"/><rect x="225" y="125" width="10" height="10" transform="rotate(0,230,130)"/><rect x="225" y="135" width="10" height="10" transform="rotate(0,230,140)"/><rect x="225" y="165" width="10" height="10" transform="rotate(0,230,170)"/><rect x="225" y="195" width="10" height="10" transform="rotate(0,230,200)"/><rect x="225" y="205" width="10" height="10" transform="rotate(0,230,210)"/><rect x="225" y="215" width="10" height="10" transform="rotate(0,230,220)"/><rect x="225" y="225" width="10" height="10" transform="rotate(0,230,230)"/><rect x="225" y="235" width="10" height="10" transform="rotate(0,230,240)"/><rect x="225" y="245" width="10" height="10" transform="rotate(0,230,250)"/><rect x="225" y="255" width="10" height="10" transform="rotate(0,230,260)"/><rect x="225" y="265" width="10" height="10" transform="rotate(0,230,270)"/><rect x="225" y="285" width="10" height="10" transform="rotate(0,230,290)"/><rect x="225" y="315" width="10" height="10" transform="rotate(0,230,320)"/><rect x="225" y="345" width="10" height="10" transform="rotate(0,230,350)"/><rect x="225" y="355" width="10" height="10" transform="rotate(0,230,360)"/><rect x="225" y="385" width="10" height="10" transform="rotate(0,230,390)"/><rect x="225" y="395" width="10" height="10" transform="rotate(0,230,400)"/><rect x="225" y="405" width="10" height="10" transform="rotate(0,230,410)"/><rect x="225" y="415" width="10" height="10" transform="rotate(0,230,420)"/><rect x="225" y="425" width="10" height="10" transform="rotate(0,230,430)"/><rect x="225" y="435" width="10" height="10" transform="rotate(0,230,440)"/><rect x="225" y="455" width="10" height="10" transform="rotate(0,230,460)"/><rect x="225" y="465" width="10" height="10" transform="rotate(0,230,470)"/><rect x="235" y="25" width="10" height="10" transform="rotate(0,240,30)"/><rect x="235" y="65" width="10" height="10" transform="rotate(0,240,70)"/><rect x="235" y="105" width="10" height="10" transform="rotate(0,240,110)"/><rect x="235" y="125" width="10" height="10" transform="rotate(0,240,130)"/><rect x="235" y="135" width="10" height="10" transform="rotate(0,240,140)"/><rect x="235" y="195" width="10" height="10" transform="rotate(0,240,200)"/><rect x="235" y="215" width="10" height="10" transform="rotate(0,240,220)"/><rect x="235" y="225" width="10" height="10" transform="rotate(0,240,230)"/><rect x="235" y="265" width="10" height="10" transform="rotate(0,240,270)"/><rect x="235" y="275" width="10" height="10" transform="rotate(0,240,280)"/><rect x="235" y="285" width="10" height="10" transform="rotate(0,240,290)"/><rect x="235" y="295" width="10" height="10" transform="rotate(0,240,300)"/><rect x="235" y="325" width="10" height="10" transform="rotate(0,240,330)"/><rect x="235" y="375" width="10" height="10" transform="rotate(0,240,380)"/><rect x="235" y="385" width="10" height="10" transform="rotate(0,240,390)"/><rect x="235" y="425" width="10" height="10" transform="rotate(0,240,430)"/><rect x="245" y="35" width="10" height="10" transform="rotate(0,250,40)"/><rect x="245" y="45" width="10" height="10" transform="rotate(0,250,50)"/><rect x="245" y="65" width="10" height="10" transform="rotate(0,250,70)"/><rect x="245" y="85" width="10" height="10" transform="rotate(0,250,90)"/><rect x="245" y="105" width="10" height="10" transform="rotate(0,250,110)"/><rect x="245" y="125" width="10" height="10" transform="rotate(0,250,130)"/><rect x="245" y="155" width="10" height="10" transform="rotate(0,250,160)"/><rect x="245" y="225" width="10" height="10" transform="rotate(0,250,230)"/><rect x="245" y="245" width="10" height="10" transform="rotate(0,250,250)"/><rect x="245" y="265" width="10" height="10" transform="rotate(0,250,270)"/><rect x="245" y="275" width="10" height="10" transform="rotate(0,250,280)"/><rect x="245" y="295" width="10" height="10" transform="rotate(0,250,300)"/><rect x="245" y="305" width="10" height="10" transform="rotate(0,250,310)"/><rect x="245" y="315" width="10" height="10" transform="rotate(0,250,320)"/><rect x="245" y="355" width="10" height="10" transform="rotate(0,250,360)"/><rect x="245" y="385" width="10" height="10" transform="rotate(0,250,390)"/><rect x="245" y="405" width="10" height="10" transform="rotate(0,250,410)"/><rect x="245" y="425" width="10" height="10" transform="rotate(0,250,430)"/><rect x="245" y="435" width="10" height="10" transform="rotate(0,250,440)"/><rect x="245" y="455" width="10" height="10" transform="rotate(0,250,460)"/><rect x="255" y="25" width="10" height="10" transform="rotate(0,260,30)"/><rect x="255" y="65" width="10" height="10" transform="rotate(0,260,70)"/><rect x="255" y="105" width="10" height="10" transform="rotate(0,260,110)"/><rect x="255" y="115" width="10" height="10" transform="rotate(0,260,120)"/><rect x="255" y="135" width="10" height="10" transform="rotate(0,260,140)"/><rect x="255" y="145" width="10" height="10" transform="rotate(0,260,150)"/><rect x="255" y="155" width="10" height="10" transform="rotate(0,260,160)"/><rect x="255" y="165" width="10" height="10" transform="rotate(0,260,170)"/><rect x="255" y="185" width="10" height="10" transform="rotate(0,260,190)"/><rect x="255" y="195" width="10" height="10" transform="rotate(0,260,200)"/><rect x="255" y="205" width="10" height="10" transform="rotate(0,260,210)"/><rect x="255" y="225" width="10" height="10" transform="rotate(0,260,230)"/><rect x="255" y="265" width="10" height="10" transform="rotate(0,260,270)"/><rect x="255" y="285" width="10" height="10" transform="rotate(0,260,290)"/><rect x="255" y="315" width="10" height="10" transform="rotate(0,260,320)"/><rect x="255" y="345" width="10" height="10" transform="rotate(0,260,350)"/><rect x="255" y="375" width="10" height="10" transform="rotate(0,260,380)"/><rect x="255" y="385" width="10" height="10" transform="rotate(0,260,390)"/><rect x="255" y="425" width="10" height="10" transform="rotate(0,260,430)"/><rect x="255" y="455" width="10" height="10" transform="rotate(0,260,460)"/><rect x="265" y="65" width="10" height="10" transform="rotate(0,270,70)"/><rect x="265" y="75" width="10" height="10" transform="rotate(0,270,80)"/><rect x="265" y="85" width="10" height="10" transform="rotate(0,270,90)"/><rect x="265" y="95" width="10" height="10" transform="rotate(0,270,100)"/><rect x="265" y="105" width="10" height="10" transform="rotate(0,270,110)"/><rect x="265" y="125" width="10" height="10" transform="rotate(0,270,130)"/><rect x="265" y="145" width="10" height="10" transform="rotate(0,270,150)"/><rect x="265" y="165" width="10" height="10" transform="rotate(0,270,170)"/><rect x="265" y="185" width="10" height="10" transform="rotate(0,270,190)"/><rect x="265" y="195" width="10" height="10" transform="rotate(0,270,200)"/><rect x="265" y="225" width="10" height="10" transform="rotate(0,270,230)"/><rect x="265" y="235" width="10" height="10" transform="rotate(0,270,240)"/><rect x="265" y="245" width="10" height="10" transform="rotate(0,270,250)"/><rect x="265" y="255" width="10" height="10" transform="rotate(0,270,260)"/><rect x="265" y="265" width="10" height="10" transform="rotate(0,270,270)"/><rect x="265" y="295" width="10" height="10" transform="rotate(0,270,300)"/><rect x="265" y="345" width="10" height="10" transform="rotate(0,270,350)"/><rect x="265" y="385" width="10" height="10" transform="rotate(0,270,390)"/><rect x="265" y="395" width="10" height="10" transform="rotate(0,270,400)"/><rect x="265" y="405" width="10" height="10" transform="rotate(0,270,410)"/><rect x="265" y="415" width="10" height="10" transform="rotate(0,270,420)"/><rect x="265" y="425" width="10" height="10" transform="rotate(0,270,430)"/><rect x="265" y="435" width="10" height="10" transform="rotate(0,270,440)"/><rect x="265" y="465" width="10" height="10" transform="rotate(0,270,470)"/><rect x="275" y="25" width="10" height="10" transform="rotate(0,280,30)"/><rect x="275" y="35" width="10" height="10" transform="rotate(0,280,40)"/><rect x="275" y="65" width="10" height="10" transform="rotate(0,280,70)"/><rect x="275" y="75" width="10" height="10" transform="rotate(0,280,80)"/><rect x="275" y="95" width="10" height="10" transform="rotate(0,280,100)"/><rect x="275" y="115" width="10" height="10" transform="rotate(0,280,120)"/><rect x="275" y="135" width="10" height="10" transform="rotate(0,280,140)"/><rect x="275" y="145" width="10" height="10" transform="rotate(0,280,150)"/><rect x="275" y="155" width="10" height="10" transform="rotate(0,280,160)"/><rect x="275" y="175" width="10" height="10" transform="rotate(0,280,180)"/><rect x="275" y="185" width="10" height="10" transform="rotate(0,280,190)"/><rect x="275" y="195" width="10" height="10" transform="rotate(0,280,200)"/><rect x="275" y="215" width="10" height="10" transform="rotate(0,280,220)"/><rect x="275" y="245" width="10" height="10" transform="rotate(0,280,250)"/><rect x="275" y="275" width="10" height="10" transform="rotate(0,280,280)"/><rect x="275" y="285" width="10" height="10" transform="rotate(0,280,290)"/><rect x="275" y="295" width="10" height="10" transform="rotate(0,280,300)"/><rect x="275" y="315" width="10" height="10" transform="rotate(0,280,320)"/><rect x="275" y="325" width="10" height="10" transform="rotate(0,280,330)"/><rect x="275" y="355" width="10" height="10" transform="rotate(0,280,360)"/><rect x="275" y="385" width="10" height="10" transform="rotate(0,280,390)"/><rect x="275" y="395" width="10" height="10" transform="rotate(0,280,400)"/><rect x="275" y="415" width="10" height="10" transform="rotate(0,280,420)"/><rect x="275" y="435" width="10" height="10" transform="rotate(0,280,440)"/><rect x="275" y="445" width="10" height="10" transform="rotate(0,280,450)"/><rect x="275" y="465" width="10" height="10" transform="rotate(0,280,470)"/><rect x="285" y="35" width="10" height="10" transform="rotate(0,290,40)"/><rect x="285" y="45" width="10" height="10" transform="rotate(0,290,50)"/><rect x="285" y="85" width="10" height="10" transform="rotate(0,290,90)"/><rect x="285" y="105" width="10" height="10" transform="rotate(0,290,110)"/><rect x="285" y="135" width="10" height="10" transform="rotate(0,290,140)"/><rect x="285" y="175" width="10" height="10" transform="rotate(0,290,180)"/><rect x="285" y="185" width="10" height="10" transform="rotate(0,290,190)"/><rect x="285" y="195" width="10" height="10" transform="rotate(0,290,200)"/><rect x="285" y="205" width="10" height="10" transform="rotate(0,290,210)"/><rect x="285" y="235" width="10" height="10" transform="rotate(0,290,240)"/><rect x="285" y="265" width="10" height="10" transform="rotate(0,290,270)"/><rect x="285" y="305" width="10" height="10" transform="rotate(0,290,310)"/><rect x="285" y="315" width="10" height="10" transform="rotate(0,290,320)"/><rect x="285" y="325" width="10" height="10" transform="rotate(0,290,330)"/><rect x="285" y="335" width="10" height="10" transform="rotate(0,290,340)"/><rect x="285" y="345" width="10" height="10" transform="rotate(0,290,350)"/><rect x="285" y="365" width="10" height="10" transform="rotate(0,290,370)"/><rect x="285" y="395" width="10" height="10" transform="rotate(0,290,400)"/><rect x="285" y="425" width="10" height="10" transform="rotate(0,290,430)"/><rect x="285" y="445" width="10" height="10" transform="rotate(0,290,450)"/><rect x="285" y="455" width="10" height="10" transform="rotate(0,290,460)"/><rect x="295" y="25" width="10" height="10" transform="rotate(0,300,30)"/><rect x="295" y="35" width="10" height="10" transform="rotate(0,300,40)"/><rect x="295" y="45" width="10" height="10" transform="rotate(0,300,50)"/><rect x="295" y="55" width="10" height="10" transform="rotate(0,300,60)"/><rect x="295" y="65" width="10" height="10" transform="rotate(0,300,70)"/><rect x="295" y="95" width="10" height="10" transform="rotate(0,300,100)"/><rect x="295" y="105" width="10" height="10" transform="rotate(0,300,110)"/><rect x="295" y="115" width="10" height="10" transform="rotate(0,300,120)"/><rect x="295" y="135" width="10" height="10" transform="rotate(0,300,140)"/><rect x="295" y="145" width="10" height="10" transform="rotate(0,300,150)"/><rect x="295" y="155" width="10" height="10" transform="rotate(0,300,160)"/><rect x="295" y="165" width="10" height="10" transform="rotate(0,300,170)"/><rect x="295" y="175" width="10" height="10" transform="rotate(0,300,180)"/><rect x="295" y="195" width="10" height="10" transform="rotate(0,300,200)"/><rect x="295" y="215" width="10" height="10" transform="rotate(0,300,220)"/><rect x="295" y="225" width="10" height="10" transform="rotate(0,300,230)"/><rect x="295" y="235" width="10" height="10" transform="rotate(0,300,240)"/><rect x="295" y="265" width="10" height="10" transform="rotate(0,300,270)"/><rect x="295" y="325" width="10" height="10" transform="rotate(0,300,330)"/><rect x="295" y="345" width="10" height="10" transform="rotate(0,300,350)"/><rect x="295" y="385" width="10" height="10" transform="rotate(0,300,390)"/><rect x="295" y="405" width="10" height="10" transform="rotate(0,300,410)"/><rect x="295" y="415" width="10" height="10" transform="rotate(0,300,420)"/><rect x="295" y="455" width="10" height="10" transform="rotate(0,300,460)"/><rect x="295" y="465" width="10" height="10" transform="rotate(0,300,470)"/><rect x="305" y="25" width="10" height="10" transform="rotate(0,310,30)"/><rect x="305" y="35" width="10" height="10" transform="rotate(0,310,40)"/><rect x="305" y="45" width="10" height="10" transform="rotate(0,310,50)"/><rect x="305" y="55" width="10" height="10" transform="rotate(0,310,60)"/><rect x="305" y="75" width="10" height="10" transform="rotate(0,310,80)"/><rect x="305" y="85" width="10" height="10" transform="rotate(0,310,90)"/><rect x="305" y="135" width="10" height="10" transform="rotate(0,310,140)"/><rect x="305" y="165" width="10" height="10" transform="rotate(0,310,170)"/><rect x="305" y="175" width="10" height="10" transform="rotate(0,310,180)"/><rect x="305" y="235" width="10" height="10" transform="rotate(0,310,240)"/><rect x="305" y="285" width="10" height="10" transform="rotate(0,310,290)"/><rect x="305" y="315" width="10" height="10" transform="rotate(0,310,320)"/><rect x="305" y="325" width="10" height="10" transform="rotate(0,310,330)"/><rect x="305" y="345" width="10" height="10" transform="rotate(0,310,350)"/><rect x="305" y="365" width="10" height="10" transform="rotate(0,310,370)"/><rect x="305" y="385" width="10" height="10" transform="rotate(0,310,390)"/><rect x="305" y="395" width="10" height="10" transform="rotate(0,310,400)"/><rect x="305" y="405" width="10" height="10" transform="rotate(0,310,410)"/><rect x="305" y="425" width="10" height="10" transform="rotate(0,310,430)"/><rect x="305" y="455" width="10" height="10" transform="rotate(0,310,460)"/><rect x="315" y="25" width="10" height="10" transform="rotate(0,320,30)"/><rect x="315" y="35" width="10" height="10" transform="rotate(0,320,40)"/><rect x="315" y="45" width="10" height="10" transform="rotate(0,320,50)"/><rect x="315" y="55" width="10" height="10" transform="rotate(0,320,60)"/><rect x="315" y="65" width="10" height="10" transform="rotate(0,320,70)"/><rect x="315" y="75" width="10" height="10" transform="rotate(0,320,80)"/><rect x="315" y="125" width="10" height="10" transform="rotate(0,320,130)"/><rect x="315" y="135" width="10" height="10" transform="rotate(0,320,140)"/><rect x="315" y="205" width="10" height="10" transform="rotate(0,320,210)"/><rect x="315" y="235" width="10" height="10" transform="rotate(0,320,240)"/><rect x="315" y="245" width="10" height="10" transform="rotate(0,320,250)"/><rect x="315" y="255" width="10" height="10" transform="rotate(0,320,260)"/><rect x="315" y="265" width="10" height="10" transform="rotate(0,320,270)"/><rect x="315" y="325" width="10" height="10" transform="rotate(0,320,330)"/><rect x="315" y="345" width="10" height="10" transform="rotate(0,320,350)"/><rect x="315" y="355" width="10" height="10" transform="rotate(0,320,360)"/><rect x="315" y="375" width="10" height="10" transform="rotate(0,320,380)"/><rect x="315" y="405" width="10" height="10" transform="rotate(0,320,410)"/><rect x="315" y="415" width="10" height="10" transform="rotate(0,320,420)"/><rect x="315" y="435" width="10" height="10" transform="rotate(0,320,440)"/><rect x="315" y="445" width="10" height="10" transform="rotate(0,320,450)"/><rect x="315" y="455" width="10" height="10" transform="rotate(0,320,460)"/><rect x="325" y="25" width="10" height="10" transform="rotate(0,330,30)"/><rect x="325" y="35" width="10" height="10" transform="rotate(0,330,40)"/><rect x="325" y="55" width="10" height="10" transform="rotate(0,330,60)"/><rect x="325" y="65" width="10" height="10" transform="rotate(0,330,70)"/><rect x="325" y="75" width="10" height="10" transform="rotate(0,330,80)"/><rect x="325" y="85" width="10" height="10" transform="rotate(0,330,90)"/><rect x="325" y="105" width="10" height="10" transform="rotate(0,330,110)"/><rect x="325" y="155" width="10" height="10" transform="rotate(0,330,160)"/><rect x="325" y="165" width="10" height="10" transform="rotate(0,330,170)"/><rect x="325" y="185" width="10" height="10" transform="rotate(0,330,190)"/><rect x="325" y="225" width="10" height="10" transform="rotate(0,330,230)"/><rect x="325" y="255" width="10" height="10" transform="rotate(0,330,260)"/><rect x="325" y="265" width="10" height="10" transform="rotate(0,330,270)"/><rect x="325" y="285" width="10" height="10" transform="rotate(0,330,290)"/><rect x="325" y="295" width="10" height="10" transform="rotate(0,330,300)"/><rect x="325" y="315" width="10" height="10" transform="rotate(0,330,320)"/><rect x="325" y="325" width="10" height="10" transform="rotate(0,330,330)"/><rect x="325" y="345" width="10" height="10" transform="rotate(0,330,350)"/><rect x="325" y="355" width="10" height="10" transform="rotate(0,330,360)"/><rect x="325" y="365" width="10" height="10" transform="rotate(0,330,370)"/><rect x="325" y="385" width="10" height="10" transform="rotate(0,330,390)"/><rect x="325" y="395" width="10" height="10" transform="rotate(0,330,400)"/><rect x="325" y="455" width="10" height="10" transform="rotate(0,330,460)"/><rect x="335" y="35" width="10" height="10" transform="rotate(0,340,40)"/><rect x="335" y="45" width="10" height="10" transform="rotate(0,340,50)"/><rect x="335" y="105" width="10" height="10" transform="rotate(0,340,110)"/><rect x="335" y="125" width="10" height="10" transform="rotate(0,340,130)"/><rect x="335" y="135" width="10" height="10" transform="rotate(0,340,140)"/><rect x="335" y="145" width="10" height="10" transform="rotate(0,340,150)"/><rect x="335" y="155" width="10" height="10" transform="rotate(0,340,160)"/><rect x="335" y="165" width="10" height="10" transform="rotate(0,340,170)"/><rect x="335" y="195" width="10" height="10" transform="rotate(0,340,200)"/><rect x="335" y="205" width="10" height="10" transform="rotate(0,340,210)"/><rect x="335" y="285" width="10" height="10" transform="rotate(0,340,290)"/><rect x="335" y="295" width="10" height="10" transform="rotate(0,340,300)"/><rect x="335" y="305" width="10" height="10" transform="rotate(0,340,310)"/><rect x="335" y="345" width="10" height="10" transform="rotate(0,340,350)"/><rect x="335" y="355" width="10" height="10" transform="rotate(0,340,360)"/><rect x="335" y="385" width="10" height="10" transform="rotate(0,340,390)"/><rect x="335" y="405" width="10" height="10" transform="rotate(0,340,410)"/><rect x="335" y="435" width="10" height="10" transform="rotate(0,340,440)"/><rect x="335" y="455" width="10" height="10" transform="rotate(0,340,460)"/><rect x="345" y="35" width="10" height="10" transform="rotate(0,350,40)"/><rect x="345" y="45" width="10" height="10" transform="rotate(0,350,50)"/><rect x="345" y="85" width="10" height="10" transform="rotate(0,350,90)"/><rect x="345" y="95" width="10" height="10" transform="rotate(0,350,100)"/><rect x="345" y="105" width="10" height="10" transform="rotate(0,350,110)"/><rect x="345" y="125" width="10" height="10" transform="rotate(0,350,130)"/><rect x="345" y="145" width="10" height="10" transform="rotate(0,350,150)"/><rect x="345" y="205" width="10" height="10" transform="rotate(0,350,210)"/><rect x="345" y="245" width="10" height="10" transform="rotate(0,350,250)"/><rect x="345" y="255" width="10" height="10" transform="rotate(0,350,260)"/><rect x="345" y="265" width="10" height="10" transform="rotate(0,350,270)"/><rect x="345" y="275" width="10" height="10" transform="rotate(0,350,280)"/><rect x="345" y="295" width="10" height="10" transform="rotate(0,350,300)"/><rect x="345" y="315" width="10" height="10" transform="rotate(0,350,320)"/><rect x="345" y="325" width="10" height="10" transform="rotate(0,350,330)"/><rect x="345" y="335" width="10" height="10" transform="rotate(0,350,340)"/><rect x="345" y="345" width="10" height="10" transform="rotate(0,350,350)"/><rect x="345" y="385" width="10" height="10" transform="rotate(0,350,390)"/><rect x="345" y="395" width="10" height="10" transform="rotate(0,350,400)"/><rect x="345" y="405" width="10" height="10" transform="rotate(0,350,410)"/><rect x="345" y="425" width="10" height="10" transform="rotate(0,350,430)"/><rect x="345" y="455" width="10" height="10" transform="rotate(0,350,460)"/><rect x="345" y="465" width="10" height="10" transform="rotate(0,350,470)"/><rect x="355" y="25" width="10" height="10" transform="rotate(0,360,30)"/><rect x="355" y="35" width="10" height="10" transform="rotate(0,360,40)"/><rect x="355" y="55" width="10" height="10" transform="rotate(0,360,60)"/><rect x="355" y="75" width="10" height="10" transform="rotate(0,360,80)"/><rect x="355" y="105" width="10" height="10" transform="rotate(0,360,110)"/><rect x="355" y="125" width="10" height="10" transform="rotate(0,360,130)"/><rect x="355" y="155" width="10" height="10" transform="rotate(0,360,160)"/><rect x="355" y="175" width="10" height="10" transform="rotate(0,360,180)"/><rect x="355" y="185" width="10" height="10" transform="rotate(0,360,190)"/><rect x="355" y="235" width="10" height="10" transform="rotate(0,360,240)"/><rect x="355" y="245" width="10" height="10" transform="rotate(0,360,250)"/><rect x="355" y="255" width="10" height="10" transform="rotate(0,360,260)"/><rect x="355" y="265" width="10" height="10" transform="rotate(0,360,270)"/><rect x="355" y="275" width="10" height="10" transform="rotate(0,360,280)"/><rect x="355" y="295" width="10" height="10" transform="rotate(0,360,300)"/><rect x="355" y="325" width="10" height="10" transform="rotate(0,360,330)"/><rect x="355" y="345" width="10" height="10" transform="rotate(0,360,350)"/><rect x="355" y="355" width="10" height="10" transform="rotate(0,360,360)"/><rect x="355" y="375" width="10" height="10" transform="rotate(0,360,380)"/><rect x="355" y="385" width="10" height="10" transform="rotate(0,360,390)"/><rect x="355" y="415" width="10" height="10" transform="rotate(0,360,420)"/><rect x="355" y="455" width="10" height="10" transform="rotate(0,360,460)"/><rect x="365" y="65" width="10" height="10" transform="rotate(0,370,70)"/><rect x="365" y="85" width="10" height="10" transform="rotate(0,370,90)"/><rect x="365" y="105" width="10" height="10" transform="rotate(0,370,110)"/><rect x="365" y="125" width="10" height="10" transform="rotate(0,370,130)"/><rect x="365" y="145" width="10" height="10" transform="rotate(0,370,150)"/><rect x="365" y="165" width="10" height="10" transform="rotate(0,370,170)"/><rect x="365" y="205" width="10" height="10" transform="rotate(0,370,210)"/><rect x="365" y="215" width="10" height="10" transform="rotate(0,370,220)"/><rect x="365" y="225" width="10" height="10" transform="rotate(0,370,230)"/><rect x="365" y="265" width="10" height="10" transform="rotate(0,370,270)"/><rect x="365" y="285" width="10" height="10" transform="rotate(0,370,290)"/><rect x="365" y="295" width="10" height="10" transform="rotate(0,370,300)"/><rect x="365" y="305" width="10" height="10" transform="rotate(0,370,310)"/><rect x="365" y="325" width="10" height="10" transform="rotate(0,370,330)"/><rect x="365" y="365" width="10" height="10" transform="rotate(0,370,370)"/><rect x="365" y="385" width="10" height="10" transform="rotate(0,370,390)"/><rect x="365" y="395" width="10" height="10" transform="rotate(0,370,400)"/><rect x="365" y="455" width="10" height="10" transform="rotate(0,370,460)"/><rect x="375" y="35" width="10" height="10" transform="rotate(0,380,40)"/><rect x="375" y="45" width="10" height="10" transform="rotate(0,380,50)"/><rect x="375" y="55" width="10" height="10" transform="rotate(0,380,60)"/><rect x="375" y="65" width="10" height="10" transform="rotate(0,380,70)"/><rect x="375" y="95" width="10" height="10" transform="rotate(0,380,100)"/><rect x="375" y="105" width="10" height="10" transform="rotate(0,380,110)"/><rect x="375" y="125" width="10" height="10" transform="rotate(0,380,130)"/><rect x="375" y="135" width="10" height="10" transform="rotate(0,380,140)"/><rect x="375" y="185" width="10" height="10" transform="rotate(0,380,190)"/><rect x="375" y="195" width="10" height="10" transform="rotate(0,380,200)"/><rect x="375" y="205" width="10" height="10" transform="rotate(0,380,210)"/><rect x="375" y="215" width="10" height="10" transform="rotate(0,380,220)"/><rect x="375" y="225" width="10" height="10" transform="rotate(0,380,230)"/><rect x="375" y="235" width="10" height="10" transform="rotate(0,380,240)"/><rect x="375" y="245" width="10" height="10" transform="rotate(0,380,250)"/><rect x="375" y="265" width="10" height="10" transform="rotate(0,380,270)"/><rect x="375" y="275" width="10" height="10" transform="rotate(0,380,280)"/><rect x="375" y="285" width="10" height="10" transform="rotate(0,380,290)"/><rect x="375" y="295" width="10" height="10" transform="rotate(0,380,300)"/><rect x="375" y="335" width="10" height="10" transform="rotate(0,380,340)"/><rect x="375" y="345" width="10" height="10" transform="rotate(0,380,350)"/><rect x="375" y="355" width="10" height="10" transform="rotate(0,380,360)"/><rect x="375" y="365" width="10" height="10" transform="rotate(0,380,370)"/><rect x="375" y="405" width="10" height="10" transform="rotate(0,380,410)"/><rect x="375" y="455" width="10" height="10" transform="rotate(0,380,460)"/><rect x="385" y="25" width="10" height="10" transform="rotate(0,390,30)"/><rect x="385" y="55" width="10" height="10" transform="rotate(0,390,60)"/><rect x="385" y="65" width="10" height="10" transform="rotate(0,390,70)"/><rect x="385" y="85" width="10" height="10" transform="rotate(0,390,90)"/><rect x="385" y="95" width="10" height="10" transform="rotate(0,390,100)"/><rect x="385" y="115" width="10" height="10" transform="rotate(0,390,120)"/><rect x="385" y="125" width="10" height="10" transform="rotate(0,390,130)"/><rect x="385" y="155" width="10" height="10" transform="rotate(0,390,160)"/><rect x="385" y="165" width="10" height="10" transform="rotate(0,390,170)"/><rect x="385" y="205" width="10" height="10" transform="rotate(0,390,210)"/><rect x="385" y="225" width="10" height="10" transform="rotate(0,390,230)"/><rect x="385" y="235" width="10" height="10" transform="rotate(0,390,240)"/><rect x="385" y="245" width="10" height="10" transform="rotate(0,390,250)"/><rect x="385" y="255" width="10" height="10" transform="rotate(0,390,260)"/><rect x="385" y="265" width="10" height="10" transform="rotate(0,390,270)"/><rect x="385" y="275" width="10" height="10" transform="rotate(0,390,280)"/><rect x="385" y="295" width="10" height="10" transform="rotate(0,390,300)"/><rect x="385" y="325" width="10" height="10" transform="rotate(0,390,330)"/><rect x="385" y="345" width="10" height="10" transform="rotate(0,390,350)"/><rect x="385" y="365" width="10" height="10" transform="rotate(0,390,370)"/><rect x="385" y="385" width="10" height="10" transform="rotate(0,390,390)"/><rect x="385" y="395" width="10" height="10" transform="rotate(0,390,400)"/><rect x="385" y="405" width="10" height="10" transform="rotate(0,390,410)"/><rect x="385" y="415" width="10" height="10" transform="rotate(0,390,420)"/><rect x="385" y="425" width="10" height="10" transform="rotate(0,390,430)"/><rect x="385" y="435" width="10" height="10" transform="rotate(0,390,440)"/><rect x="385" y="455" width="10" height="10" transform="rotate(0,390,460)"/><rect x="395" y="105" width="10" height="10" transform="rotate(0,400,110)"/><rect x="395" y="115" width="10" height="10" transform="rotate(0,400,120)"/><rect x="395" y="125" width="10" height="10" transform="rotate(0,400,130)"/><rect x="395" y="135" width="10" height="10" transform="rotate(0,400,140)"/><rect x="395" y="155" width="10" height="10" transform="rotate(0,400,160)"/><rect x="395" y="175" width="10" height="10" transform="rotate(0,400,180)"/><rect x="395" y="185" width="10" height="10" transform="rotate(0,400,190)"/><rect x="395" y="225" width="10" height="10" transform="rotate(0,400,230)"/><rect x="395" y="265" width="10" height="10" transform="rotate(0,400,270)"/><rect x="395" y="285" width="10" height="10" transform="rotate(0,400,290)"/><rect x="395" y="295" width="10" height="10" transform="rotate(0,400,300)"/><rect x="395" y="305" width="10" height="10" transform="rotate(0,400,310)"/><rect x="395" y="315" width="10" height="10" transform="rotate(0,400,320)"/><rect x="395" y="325" width="10" height="10" transform="rotate(0,400,330)"/><rect x="395" y="335" width="10" height="10" transform="rotate(0,400,340)"/><rect x="395" y="345" width="10" height="10" transform="rotate(0,400,350)"/><rect x="395" y="355" width="10" height="10" transform="rotate(0,400,360)"/><rect x="395" y="375" width="10" height="10" transform="rotate(0,400,380)"/><rect x="395" y="385" width="10" height="10" transform="rotate(0,400,390)"/><rect x="395" y="425" width="10" height="10" transform="rotate(0,400,430)"/><rect x="395" y="435" width="10" height="10" transform="rotate(0,400,440)"/><rect x="395" y="445" width="10" height="10" transform="rotate(0,400,450)"/><rect x="395" y="455" width="10" height="10" transform="rotate(0,400,460)"/><rect x="405" y="125" width="10" height="10" transform="rotate(0,410,130)"/><rect x="405" y="145" width="10" height="10" transform="rotate(0,410,150)"/><rect x="405" y="175" width="10" height="10" transform="rotate(0,410,180)"/><rect x="405" y="195" width="10" height="10" transform="rotate(0,410,200)"/><rect x="405" y="215" width="10" height="10" transform="rotate(0,410,220)"/><rect x="405" y="225" width="10" height="10" transform="rotate(0,410,230)"/><rect x="405" y="245" width="10" height="10" transform="rotate(0,410,250)"/><rect x="405" y="265" width="10" height="10" transform="rotate(0,410,270)"/><rect x="405" y="275" width="10" height="10" transform="rotate(0,410,280)"/><rect x="405" y="325" width="10" height="10" transform="rotate(0,410,330)"/><rect x="405" y="345" width="10" height="10" transform="rotate(0,410,350)"/><rect x="405" y="355" width="10" height="10" transform="rotate(0,410,360)"/><rect x="405" y="385" width="10" height="10" transform="rotate(0,410,390)"/><rect x="405" y="405" width="10" height="10" transform="rotate(0,410,410)"/><rect x="405" y="425" width="10" height="10" transform="rotate(0,410,430)"/><rect x="405" y="435" width="10" height="10" transform="rotate(0,410,440)"/><rect x="405" y="445" width="10" height="10" transform="rotate(0,410,450)"/><rect x="415" y="115" width="10" height="10" transform="rotate(0,420,120)"/><rect x="415" y="125" width="10" height="10" transform="rotate(0,420,130)"/><rect x="415" y="135" width="10" height="10" transform="rotate(0,420,140)"/><rect x="415" y="155" width="10" height="10" transform="rotate(0,420,160)"/><rect x="415" y="165" width="10" height="10" transform="rotate(0,420,170)"/><rect x="415" y="175" width="10" height="10" transform="rotate(0,420,180)"/><rect x="415" y="185" width="10" height="10" transform="rotate(0,420,190)"/><rect x="415" y="215" width="10" height="10" transform="rotate(0,420,220)"/><rect x="415" y="225" width="10" height="10" transform="rotate(0,420,230)"/><rect x="415" y="265" width="10" height="10" transform="rotate(0,420,270)"/><rect x="415" y="275" width="10" height="10" transform="rotate(0,420,280)"/><rect x="415" y="285" width="10" height="10" transform="rotate(0,420,290)"/><rect x="415" y="315" width="10" height="10" transform="rotate(0,420,320)"/><rect x="415" y="325" width="10" height="10" transform="rotate(0,420,330)"/><rect x="415" y="335" width="10" height="10" transform="rotate(0,420,340)"/><rect x="415" y="345" width="10" height="10" transform="rotate(0,420,350)"/><rect x="415" y="385" width="10" height="10" transform="rotate(0,420,390)"/><rect x="415" y="425" width="10" height="10" transform="rotate(0,420,430)"/><rect x="415" y="455" width="10" height="10" transform="rotate(0,420,460)"/><rect x="425" y="105" width="10" height="10" transform="rotate(0,430,110)"/><rect x="425" y="125" width="10" height="10" transform="rotate(0,430,130)"/><rect x="425" y="135" width="10" height="10" transform="rotate(0,430,140)"/><rect x="425" y="185" width="10" height="10" transform="rotate(0,430,190)"/><rect x="425" y="195" width="10" height="10" transform="rotate(0,430,200)"/><rect x="425" y="225" width="10" height="10" transform="rotate(0,430,230)"/><rect x="425" y="235" width="10" height="10" transform="rotate(0,430,240)"/><rect x="425" y="245" width="10" height="10" transform="rotate(0,430,250)"/><rect x="425" y="255" width="10" height="10" transform="rotate(0,430,260)"/><rect x="425" y="265" width="10" height="10" transform="rotate(0,430,270)"/><rect x="425" y="275" width="10" height="10" transform="rotate(0,430,280)"/><rect x="425" y="295" width="10" height="10" transform="rotate(0,430,300)"/><rect x="425" y="315" width="10" height="10" transform="rotate(0,430,320)"/><rect x="425" y="325" width="10" height="10" transform="rotate(0,430,330)"/><rect x="425" y="335" width="10" height="10" transform="rotate(0,430,340)"/><rect x="425" y="345" width="10" height="10" transform="rotate(0,430,350)"/><rect x="425" y="355" width="10" height="10" transform="rotate(0,430,360)"/><rect x="425" y="365" width="10" height="10" transform="rotate(0,430,370)"/><rect x="425" y="375" width="10" height="10" transform="rotate(0,430,380)"/><rect x="425" y="385" width="10" height="10" transform="rotate(0,430,390)"/><rect x="425" y="395" width="10" height="10" transform="rotate(0,430,400)"/><rect x="425" y="405" width="10" height="10" transform="rotate(0,430,410)"/><rect x="425" y="415" width="10" height="10" transform="rotate(0,430,420)"/><rect x="425" y="425" width="10" height="10" transform="rotate(0,430,430)"/><rect x="425" y="445" width="10" height="10" transform="rotate(0,430,450)"/><rect x="425" y="465" width="10" height="10" transform="rotate(0,430,470)"/><rect x="435" y="125" width="10" height="10" transform="rotate(0,440,130)"/><rect x="435" y="145" width="10" height="10" transform="rotate(0,440,150)"/><rect x="435" y="185" width="10" height="10" transform="rotate(0,440,190)"/><rect x="435" y="195" width="10" height="10" transform="rotate(0,440,200)"/><rect x="435" y="225" width="10" height="10" transform="rotate(0,440,230)"/><rect x="435" y="265" width="10" height="10" transform="rotate(0,440,270)"/><rect x="435" y="275" width="10" height="10" transform="rotate(0,440,280)"/><rect x="435" y="285" width="10" height="10" transform="rotate(0,440,290)"/><rect x="435" y="295" width="10" height="10" transform="rotate(0,440,300)"/><rect x="435" y="315" width="10" height="10" transform="rotate(0,440,320)"/><rect x="435" y="325" width="10" height="10" transform="rotate(0,440,330)"/><rect x="435" y="335" width="10" height="10" transform="rotate(0,440,340)"/><rect x="435" y="345" width="10" height="10" transform="rotate(0,440,350)"/><rect x="435" y="395" width="10" height="10" transform="rotate(0,440,400)"/><rect x="435" y="405" width="10" height="10" transform="rotate(0,440,410)"/><rect x="435" y="415" width="10" height="10" transform="rotate(0,440,420)"/><rect x="435" y="425" width="10" height="10" transform="rotate(0,440,430)"/><rect x="435" y="445" width="10" height="10" transform="rotate(0,440,450)"/><rect x="435" y="465" width="10" height="10" transform="rotate(0,440,470)"/><rect x="445" y="115" width="10" height="10" transform="rotate(0,450,120)"/><rect x="445" y="125" width="10" height="10" transform="rotate(0,450,130)"/><rect x="445" y="135" width="10" height="10" transform="rotate(0,450,140)"/><rect x="445" y="145" width="10" height="10" transform="rotate(0,450,150)"/><rect x="445" y="155" width="10" height="10" transform="rotate(0,450,160)"/><rect x="445" y="225" width="10" height="10" transform="rotate(0,450,230)"/><rect x="445" y="235" width="10" height="10" transform="rotate(0,450,240)"/><rect x="445" y="245" width="10" height="10" transform="rotate(0,450,250)"/><rect x="445" y="265" width="10" height="10" transform="rotate(0,450,270)"/><rect x="445" y="285" width="10" height="10" transform="rotate(0,450,290)"/><rect x="445" y="295" width="10" height="10" transform="rotate(0,450,300)"/><rect x="445" y="315" width="10" height="10" transform="rotate(0,450,320)"/><rect x="445" y="325" width="10" height="10" transform="rotate(0,450,330)"/><rect x="445" y="335" width="10" height="10" transform="rotate(0,450,340)"/><rect x="445" y="355" width="10" height="10" transform="rotate(0,450,360)"/><rect x="445" y="425" width="10" height="10" transform="rotate(0,450,430)"/><rect x="445" y="435" width="10" height="10" transform="rotate(0,450,440)"/><rect x="445" y="455" width="10" height="10" transform="rotate(0,450,460)"/><rect x="455" y="105" width="10" height="10" transform="rotate(0,460,110)"/><rect x="455" y="115" width="10" height="10" transform="rotate(0,460,120)"/><rect x="455" y="125" width="10" height="10" transform="rotate(0,460,130)"/><rect x="455" y="185" width="10" height="10" transform="rotate(0,460,190)"/><rect x="455" y="235" width="10" height="10" transform="rotate(0,460,240)"/><rect x="455" y="255" width="10" height="10" transform="rotate(0,460,260)"/><rect x="455" y="295" width="10" height="10" transform="rotate(0,460,300)"/><rect x="455" y="305" width="10" height="10" transform="rotate(0,460,310)"/><rect x="455" y="325" width="10" height="10" transform="rotate(0,460,330)"/><rect x="455" y="345" width="10" height="10" transform="rotate(0,460,350)"/><rect x="455" y="385" width="10" height="10" transform="rotate(0,460,390)"/><rect x="455" y="395" width="10" height="10" transform="rotate(0,460,400)"/><rect x="455" y="415" width="10" height="10" transform="rotate(0,460,420)"/><rect x="455" y="425" width="10" height="10" transform="rotate(0,460,430)"/><rect x="455" y="435" width="10" height="10" transform="rotate(0,460,440)"/><rect x="465" y="125" width="10" height="10" transform="rotate(0,470,130)"/><rect x="465" y="135" width="10" height="10" transform="rotate(0,470,140)"/><rect x="465" y="145" width="10" height="10" transform="rotate(0,470,150)"/><rect x="465" y="205" width="10" height="10" transform="rotate(0,470,210)"/><rect x="465" y="215" width="10" height="10" transform="rotate(0,470,220)"/><rect x="465" y="225" width="10" height="10" transform="rotate(0,470,230)"/><rect x="465" y="245" width="10" height="10" transform="rotate(0,470,250)"/><rect x="465" y="255" width="10" height="10" transform="rotate(0,470,260)"/><rect x="465" y="265" width="10" height="10" transform="rotate(0,470,270)"/><rect x="465" y="275" width="10" height="10" transform="rotate(0,470,280)"/><rect x="465" y="295" width="10" height="10" transform="rotate(0,470,300)"/><rect x="465" y="305" width="10" height="10" transform="rotate(0,470,310)"/><rect x="465" y="345" width="10" height="10" transform="rotate(0,470,350)"/><rect x="465" y="365" width="10" height="10" transform="rotate(0,470,370)"/><rect x="465" y="375" width="10" height="10" transform="rotate(0,470,380)"/><rect x="465" y="385" width="10" height="10" transform="rotate(0,470,390)"/><rect x="465" y="415" width="10" height="10" transform="rotate(0,470,420)"/><rect x="465" y="435" width="10" height="10" transform="rotate(0,470,440)"/><rect x="465" y="465" width="10" height="10" transform="rotate(0,470,470)"/><path clip-rule="evenodd" d="M 25 25v 70h 70v -70zM 35 35h 50v 50h -50z" transform="rotate(0,60,60)"/><rect x="45" y="45" width="30" height="30" transform="rotate(0,60,60)"/><path clip-rule="evenodd" d="M 405 25v 70h 70v -70zM 415 35h 50v 50h -50z" transform="rotate(90,440,60)"/><rect x="425" y="45" width="30" height="30" transform="rotate(90,440,60)"/><path clip-rule="evenodd" d="M 25 405v 70h 70v -70zM 35 415h 50v 50h -50z" transform="rotate(-90,60,440)"/><rect x="45" y="425" width="30" height="30" transform="rotate(-90,60,440)"/></clipPath></defs><rect x="0" y="0" height="500" width="500" clip-path="url('#clip-path-background-color')" fill="#fff"/><rect x="0" y="0" height="500" width="500" clip-path="url('#clip-path-dot-color')" fill="#000000"/></svg>